<svg xmlns="http://www.w3.org/2000/svg" xmlns:xlink="http://www.w3.org/1999/xlink" width="2000" zoomAndPan="magnify" viewBox="0 0 1500 1499.999933" height="2000" preserveAspectRatio="xMidYMid meet" version="1.0"><defs><clipPath id="69d22ff8bb"><path d="M 226 532.773438 L 556.644531 532.773438 L 556.644531 895.773438 L 226 895.773438 Z M 226 532.773438 " clip-rule="nonzero"/></clipPath><clipPath id="676a2feb1c"><path d="M 534.542969 483.203125 L 965.042969 483.203125 L 965.042969 913.703125 L 534.542969 913.703125 Z M 534.542969 483.203125 " clip-rule="nonzero"/></clipPath><clipPath id="6d0e65de30"><path d="M 534.542969 516.953125 L 534.542969 880.089844 C 534.542969 898.730469 549.652344 913.839844 568.292969 913.839844 L 931.429688 913.839844 C 950.066406 913.839844 965.179688 898.730469 965.179688 880.089844 L 965.179688 516.953125 C 965.179688 498.316406 950.066406 483.203125 931.429688 483.203125 L 568.292969 483.203125 C 549.652344 483.203125 534.542969 498.316406 534.542969 516.953125 Z M 534.542969 516.953125 " clip-rule="nonzero"/></clipPath><clipPath id="bc6f5e2313"><path d="M 1005.488281 510.222656 L 1349.738281 510.222656 L 1349.738281 918.222656 L 1005.488281 918.222656 Z M 1005.488281 510.222656 " clip-rule="nonzero"/></clipPath><clipPath id="2ec589c89e"><path d="M 1005.488281 377 L 1165.496094 377 L 1165.496094 532.769531 L 1005.488281 532.769531 Z M 1005.488281 377 " clip-rule="nonzero"/></clipPath><clipPath id="a3d321fe21"><path d="M 1200.148438 377 L 1360.238281 377 L 1360.238281 532.769531 L 1200.148438 532.769531 Z M 1200.148438 377 " clip-rule="nonzero"/></clipPath><clipPath id="ef886a4d85"><path d="M 1165 282.363281 L 1200 282.363281 L 1200 317 L 1165 317 Z M 1165 282.363281 " clip-rule="nonzero"/></clipPath></defs><rect x="-150" width="1800" fill="#ffffff" y="-149.999993" height="1799.99992" fill-opacity="1"/><rect x="-150" width="1800" fill="#ffffff" y="-149.999993" height="1799.99992" fill-opacity="1"/><g clip-path="url(#69d22ff8bb)"><path fill="#000000" d="M 226.074219 895.773438 L 305.910156 895.773438 L 305.910156 799.871094 L 549.394531 532.773438 L 453.035156 532.773438 L 305.949219 691.417969 L 305.949219 532.773438 L 226.074219 532.773438 Z M 374.707031 781.300781 L 460.566406 895.773438 L 556.460938 895.773438 L 424.429688 724.546875 Z M 374.707031 781.300781 " fill-opacity="1" fill-rule="evenodd"/></g><g clip-path="url(#676a2feb1c)"><g clip-path="url(#6d0e65de30)"><path fill="#00bf63" d="M 720.128906 842.085938 C 728.265625 752.019531 737.742188 741.949219 760.320312 754.382812 C 782.898438 766.816406 822.027344 772.414062 842.316406 757.691406 C 862.640625 742.96875 868.207031 711.480469 867.957031 710.210938 C 867.710938 708.945312 892.332031 692.953125 864.648438 687.601562 C 843.304688 683.480469 824.246094 671.46875 816.675781 666.183594 C 814.492188 664.671875 813.1875 662.203125 812.976562 659.5625 C 808.539062 602.292969 742.53125 585.558594 728.195312 588.167969 C 676.066406 597.640625 724.425781 712.113281 712.628906 728.984375 C 693.679688 756.070312 641.550781 753.359375 648.3125 698.519531 C 655.074219 643.675781 654.40625 582.074219 631.371094 627.441406 C 616.152344 657.414062 591.640625 707.605469 538.664062 740.574219 C 535.988281 726.976562 534.542969 712.925781 534.542969 698.519531 C 534.542969 579.609375 630.949219 483.203125 749.859375 483.203125 C 868.769531 483.203125 965.171875 579.609375 965.171875 698.519531 C 965.171875 817.429688 868.769531 913.832031 749.859375 913.832031 C 732.070312 913.832031 714.777344 911.613281 698.222656 907.5625 C 709.316406 888.964844 717.804688 867.867188 720.128906 842.085938 Z M 720.128906 842.085938 " fill-opacity="1" fill-rule="nonzero"/></g></g><g clip-path="url(#bc6f5e2313)"><path fill="#000000" d="M 1139.355469 918.265625 C 1065.546875 918.265625 1005.5 858.207031 1005.5 784.390625 L 1005.5 510.246094 L 1110.148438 510.246094 L 1110.148438 786.109375 C 1110.148438 801.269531 1122.480469 813.605469 1137.640625 813.605469 L 1280.820312 813.605469 L 1349.664062 918.265625 Z M 1233.15625 766.507812 L 1233.15625 510.246094 L 1337.804688 510.246094 L 1337.804688 766.507812 Z M 1233.15625 766.507812 " fill-opacity="1" fill-rule="nonzero"/></g><path fill="#1b75bb" d="M 1165.339844 453.816406 L 1181.136719 332.179688 L 1138.015625 428.570312 C 1138.015625 428.570312 1157.210938 441.046875 1165.339844 453.816406 " fill-opacity="1" fill-rule="nonzero"/><g clip-path="url(#2ec589c89e)"><path fill="#26a9e0" d="M 1138.015625 428.570312 C 1077.058594 386.65625 1005.488281 377.164062 1005.488281 377.164062 C 1110.308594 420.171875 1155.085938 532.769531 1155.085938 532.769531 L 1165.339844 453.816406 C 1157.210938 441.046875 1138.015625 428.570312 1138.015625 428.570312 " fill-opacity="1" fill-rule="nonzero"/></g><path fill="#26a9e0" d="M 1091.863281 374.183594 C 1093.671875 360.269531 1106.414062 350.460938 1120.324219 352.265625 C 1122.394531 352.535156 1124.367188 353.050781 1126.230469 353.769531 L 1119.535156 342.839844 L 1123.652344 338.085938 L 1130.671875 349.546875 C 1130.441406 350.015625 1130.445312 350.59375 1130.738281 351.074219 C 1131.101562 351.667969 1131.796875 351.933594 1132.441406 351.785156 L 1132.550781 352.84375 L 1136.96875 360.058594 L 1138.609375 359.054688 L 1134.191406 351.839844 L 1133.296875 351.261719 C 1133.722656 350.753906 1133.796875 350.015625 1133.433594 349.421875 C 1133.140625 348.941406 1132.628906 348.675781 1132.105469 348.671875 L 1124.804688 336.753906 L 1129.46875 331.371094 L 1093.078125 338.152344 L 1070.5 367.480469 L 1085.230469 363.84375 L 1091.820312 374.601562 C 1091.835938 374.460938 1091.847656 374.320312 1091.863281 374.183594 " fill-opacity="1" fill-rule="nonzero"/><path fill="#26a9e0" d="M 1114.09375 400.265625 C 1126.691406 401.902344 1138.234375 393.015625 1139.871094 380.414062 C 1141.507812 367.816406 1132.617188 356.277344 1120.015625 354.640625 C 1107.417969 353.003906 1095.875 361.890625 1094.238281 374.492188 C 1092.601562 387.089844 1101.492188 398.628906 1114.09375 400.265625 " fill-opacity="1" fill-rule="nonzero"/><path fill="#f6921e" d="M 1200.386719 453.816406 L 1184.589844 332.179688 L 1227.710938 428.570312 C 1227.710938 428.570312 1208.515625 441.046875 1200.386719 453.816406 " fill-opacity="1" fill-rule="nonzero"/><g clip-path="url(#a3d321fe21)"><path fill="#faaf40" d="M 1227.710938 428.570312 C 1288.667969 386.65625 1360.238281 377.164062 1360.238281 377.164062 C 1255.421875 420.171875 1210.640625 532.769531 1210.640625 532.769531 L 1200.386719 453.816406 C 1208.515625 441.046875 1227.710938 428.570312 1227.710938 428.570312 " fill-opacity="1" fill-rule="nonzero"/></g><path fill="#f6921e" d="M 1273.863281 374.183594 C 1272.054688 360.269531 1259.3125 350.460938 1245.402344 352.265625 C 1243.332031 352.535156 1241.355469 353.050781 1239.496094 353.769531 L 1246.191406 342.839844 L 1242.074219 338.085938 L 1235.054688 349.546875 C 1235.285156 350.015625 1235.28125 350.59375 1234.984375 351.074219 C 1234.621094 351.667969 1233.929688 351.933594 1233.285156 351.785156 L 1233.175781 352.84375 L 1228.757812 360.058594 L 1227.117188 359.054688 L 1231.535156 351.839844 L 1232.429688 351.261719 C 1232.003906 350.753906 1231.929688 350.015625 1232.292969 349.421875 C 1232.585938 348.941406 1233.09375 348.675781 1233.621094 348.671875 L 1240.917969 336.753906 L 1236.257812 331.371094 L 1272.648438 338.152344 L 1295.226562 367.480469 L 1280.496094 363.84375 L 1273.90625 374.601562 C 1273.890625 374.460938 1273.882812 374.320312 1273.863281 374.183594 " fill-opacity="1" fill-rule="nonzero"/><path fill="#f6921e" d="M 1251.636719 400.265625 C 1239.03125 401.902344 1227.492188 393.015625 1225.855469 380.414062 C 1224.21875 367.816406 1233.109375 356.277344 1245.710938 354.640625 C 1258.308594 353.003906 1269.851562 361.890625 1271.488281 374.492188 C 1273.125 387.089844 1264.234375 398.628906 1251.636719 400.265625 " fill-opacity="1" fill-rule="nonzero"/><g clip-path="url(#ef886a4d85)"><path fill="#f6921e" d="M 1181.996094 313.085938 L 1182.523438 316.542969 L 1182.992188 313.078125 C 1183.90625 306.292969 1189.1875 300.917969 1195.957031 299.886719 L 1199.414062 299.359375 L 1195.949219 298.890625 C 1189.160156 297.976562 1183.789062 292.695312 1182.757812 285.925781 L 1182.230469 282.472656 L 1181.761719 285.933594 C 1180.847656 292.722656 1175.566406 298.09375 1168.792969 299.125 L 1165.339844 299.652344 L 1168.800781 300.121094 C 1175.589844 301.039062 1180.964844 306.316406 1181.996094 313.085938 " fill-opacity="1" fill-rule="nonzero"/></g><path fill="#f6921e" d="M 1210.488281 330.488281 L 1210.742188 332.160156 L 1210.96875 330.484375 C 1211.414062 327.191406 1213.976562 324.582031 1217.261719 324.082031 L 1218.9375 323.828125 L 1217.257812 323.601562 C 1213.964844 323.15625 1211.355469 320.59375 1210.855469 317.3125 L 1210.601562 315.632812 L 1210.375 317.316406 C 1209.929688 320.609375 1207.367188 323.214844 1204.082031 323.714844 L 1202.40625 323.96875 L 1204.085938 324.195312 C 1207.378906 324.640625 1209.988281 327.203125 1210.488281 330.488281 " fill-opacity="1" fill-rule="nonzero"/><path fill="#1b75bb" d="M 1156.890625 330.488281 L 1157.144531 332.160156 L 1157.371094 330.484375 C 1157.816406 327.191406 1160.378906 324.582031 1163.664062 324.082031 L 1165.339844 323.828125 L 1163.660156 323.601562 C 1160.363281 323.15625 1157.757812 320.59375 1157.257812 317.3125 L 1157 315.632812 L 1156.777344 317.316406 C 1156.332031 320.609375 1153.769531 323.214844 1150.484375 323.714844 L 1148.808594 323.96875 L 1150.488281 324.195312 C 1153.78125 324.640625 1156.386719 327.203125 1156.890625 330.488281 " fill-opacity="1" fill-rule="nonzero"/></svg>