<svg xmlns="http://www.w3.org/2000/svg" xmlns:xlink="http://www.w3.org/1999/xlink" width="1080" zoomAndPan="magnify" viewBox="0 0 810 809.999993" height="1080" preserveAspectRatio="xMidYMid meet" version="1.0"><defs><g/><clipPath id="ee5d8fe50d"><path d="M 33.777344 385.769531 L 108.777344 385.769531 L 108.777344 468.269531 L 33.777344 468.269531 Z M 33.777344 385.769531 " clip-rule="nonzero"/></clipPath><clipPath id="8ed4bcc641"><path d="M 211.253906 380.632812 L 290 380.632812 L 290 473.632812 L 211.253906 473.632812 Z M 211.253906 380.632812 " clip-rule="nonzero"/></clipPath><clipPath id="a860680b2f"><path d="M 104.039062 374.484375 L 202.289062 374.484375 L 202.289062 472.734375 L 104.039062 472.734375 Z M 104.039062 374.484375 " clip-rule="nonzero"/></clipPath><clipPath id="fe59f9d55c"><path d="M 104.039062 418.734375 L 104.039062 428.265625 C 104.039062 452.707031 123.851562 472.515625 148.289062 472.515625 L 157.824219 472.515625 C 182.265625 472.515625 202.074219 452.707031 202.074219 428.265625 L 202.074219 418.734375 C 202.074219 394.292969 182.265625 374.484375 157.824219 374.484375 L 148.289062 374.484375 C 123.851562 374.484375 104.039062 394.292969 104.039062 418.734375 Z M 104.039062 418.734375 " clip-rule="nonzero"/></clipPath><clipPath id="30aabe7cba"><path d="M 197.449219 334.019531 L 245.273438 334.019531 L 245.273438 380.601562 L 197.449219 380.601562 Z M 197.449219 334.019531 " clip-rule="nonzero"/></clipPath><clipPath id="cec891b6ea"><path d="M 255.632812 334.019531 L 303.199219 334.019531 L 303.199219 380.601562 L 255.632812 380.601562 Z M 255.632812 334.019531 " clip-rule="nonzero"/></clipPath><clipPath id="78200e4b68"><path d="M 245 305.746094 L 256 305.746094 L 256 316 L 245 316 Z M 245 305.746094 " clip-rule="nonzero"/></clipPath><clipPath id="cbc1a5f365"><rect x="0" width="425" y="0" height="103"/></clipPath><clipPath id="689b441194"><rect x="0" width="468" y="0" height="53"/></clipPath></defs><g clip-path="url(#ee5d8fe50d)"><path fill="#0f0f0f" d="M 33.820312 468.445312 L 52.003906 468.445312 L 52.003906 446.601562 L 107.464844 385.769531 L 85.515625 385.769531 L 52.011719 421.898438 L 52.011719 385.769531 L 33.820312 385.769531 Z M 67.671875 442.371094 L 87.230469 468.445312 L 109.074219 468.445312 L 79 429.445312 Z M 67.671875 442.371094 " fill-opacity="1" fill-rule="evenodd"/></g><g clip-path="url(#8ed4bcc641)"><path fill="#0f0f0f" d="M 241.746094 473.585938 C 224.933594 473.585938 211.253906 459.902344 211.253906 443.089844 L 211.253906 380.640625 L 235.09375 380.640625 L 235.09375 443.480469 C 235.09375 446.933594 237.902344 449.742188 241.355469 449.742188 L 273.972656 449.742188 L 289.65625 473.585938 Z M 263.113281 439.015625 L 263.113281 380.640625 L 286.953125 380.640625 L 286.953125 439.015625 Z M 263.113281 439.015625 " fill-opacity="1" fill-rule="nonzero"/></g><g clip-path="url(#a860680b2f)"><g clip-path="url(#fe59f9d55c)"><path fill="#0f0f0f" d="M 146.289062 456.175781 C 148.140625 435.675781 150.296875 433.382812 155.4375 436.214844 C 160.574219 439.042969 169.484375 440.316406 174.101562 436.964844 C 178.726562 433.613281 179.996094 426.445312 179.9375 426.160156 C 179.882812 425.871094 185.488281 422.230469 179.183594 421.011719 C 174.324219 420.074219 169.988281 417.339844 168.265625 416.136719 C 167.765625 415.792969 167.472656 415.230469 167.421875 414.628906 C 166.414062 401.589844 151.386719 397.78125 148.125 398.375 C 136.257812 400.53125 147.265625 426.589844 144.578125 430.433594 C 140.265625 436.597656 128.398438 435.980469 129.9375 423.496094 C 131.476562 411.011719 131.324219 396.988281 126.082031 407.316406 C 122.617188 414.140625 117.039062 425.566406 104.980469 433.070312 C 104.371094 429.976562 104.039062 426.777344 104.039062 423.496094 C 104.039062 396.429688 125.984375 374.484375 153.054688 374.484375 C 180.125 374.484375 202.066406 396.429688 202.066406 423.496094 C 202.066406 450.566406 180.125 472.511719 153.054688 472.511719 C 149.003906 472.511719 145.070312 472.003906 141.300781 471.082031 C 143.824219 466.847656 145.757812 462.046875 146.289062 456.175781 Z M 146.289062 456.175781 " fill-opacity="1" fill-rule="nonzero"/></g></g><path fill="#0f0f0f" d="M 245.226562 357 L 249.949219 320.636719 L 237.058594 349.453125 C 237.058594 349.453125 242.796875 353.183594 245.226562 357 " fill-opacity="1" fill-rule="nonzero"/><g clip-path="url(#30aabe7cba)"><path fill="#0f0f0f" d="M 237.058594 349.453125 C 218.839844 336.921875 197.449219 334.085938 197.449219 334.085938 C 228.777344 346.941406 242.160156 380.601562 242.160156 380.601562 L 245.226562 357 C 242.796875 353.183594 237.058594 349.453125 237.058594 349.453125 " fill-opacity="1" fill-rule="nonzero"/></g><path fill="#0f0f0f" d="M 223.265625 333.195312 C 223.804688 329.035156 227.613281 326.101562 231.773438 326.640625 C 232.390625 326.722656 232.980469 326.875 233.539062 327.09375 L 231.535156 323.824219 L 232.765625 322.402344 L 234.863281 325.828125 C 234.796875 325.96875 234.796875 326.140625 234.886719 326.285156 C 234.992188 326.464844 235.203125 326.542969 235.394531 326.5 L 235.425781 326.816406 L 236.746094 328.972656 L 237.238281 328.671875 L 235.917969 326.515625 L 235.648438 326.34375 C 235.777344 326.191406 235.800781 325.96875 235.691406 325.792969 C 235.601562 325.648438 235.449219 325.570312 235.292969 325.566406 L 233.113281 322.003906 L 234.503906 320.394531 L 223.628906 322.421875 L 216.878906 331.191406 L 221.285156 330.105469 L 223.253906 333.320312 C 223.257812 333.277344 223.261719 333.234375 223.265625 333.195312 " fill-opacity="1" fill-rule="nonzero"/><path fill="#0f0f0f" d="M 229.910156 340.992188 C 233.675781 341.480469 237.125 338.824219 237.613281 335.058594 C 238.105469 331.289062 235.445312 327.839844 231.679688 327.351562 C 227.914062 326.863281 224.464844 329.519531 223.976562 333.285156 C 223.484375 337.050781 226.144531 340.503906 229.910156 340.992188 " fill-opacity="1" fill-rule="nonzero"/><path fill="#0f0f0f" d="M 255.703125 357 L 250.980469 320.636719 L 263.867188 349.453125 C 263.867188 349.453125 258.132812 353.183594 255.703125 357 " fill-opacity="1" fill-rule="nonzero"/><g clip-path="url(#cec891b6ea)"><path fill="#0f0f0f" d="M 263.867188 349.453125 C 282.089844 336.921875 303.480469 334.085938 303.480469 334.085938 C 272.152344 346.941406 258.765625 380.601562 258.765625 380.601562 L 255.703125 357 C 258.132812 353.183594 263.867188 349.453125 263.867188 349.453125 " fill-opacity="1" fill-rule="nonzero"/></g><path fill="#0f0f0f" d="M 277.664062 333.195312 C 277.125 329.035156 273.316406 326.101562 269.15625 326.640625 C 268.539062 326.722656 267.949219 326.875 267.390625 327.09375 L 269.390625 323.824219 L 268.164062 322.402344 L 266.0625 325.828125 C 266.132812 325.96875 266.132812 326.140625 266.042969 326.285156 C 265.933594 326.464844 265.726562 326.542969 265.535156 326.5 L 265.503906 326.816406 L 264.179688 328.972656 L 263.691406 328.671875 L 265.011719 326.515625 L 265.277344 326.34375 C 265.152344 326.191406 265.128906 325.96875 265.238281 325.792969 C 265.324219 325.648438 265.476562 325.570312 265.636719 325.566406 L 267.816406 322.003906 L 266.421875 320.394531 L 277.300781 322.421875 L 284.046875 331.191406 L 279.644531 330.105469 L 277.675781 333.320312 C 277.671875 333.277344 277.667969 333.234375 277.664062 333.195312 " fill-opacity="1" fill-rule="nonzero"/><path fill="#0f0f0f" d="M 271.019531 340.992188 C 267.253906 341.480469 263.804688 338.824219 263.3125 335.058594 C 262.824219 331.289062 265.480469 327.839844 269.25 327.351562 C 273.015625 326.863281 276.464844 329.519531 276.953125 333.285156 C 277.441406 337.050781 274.785156 340.503906 271.019531 340.992188 " fill-opacity="1" fill-rule="nonzero"/><g clip-path="url(#78200e4b68)"><path fill="#0f0f0f" d="M 250.207031 314.929688 L 250.363281 315.964844 L 250.503906 314.929688 C 250.777344 312.898438 252.355469 311.292969 254.378906 310.984375 L 255.410156 310.828125 L 254.375 310.6875 C 252.347656 310.414062 250.742188 308.835938 250.433594 306.8125 L 250.273438 305.777344 L 250.136719 306.8125 C 249.863281 308.84375 248.285156 310.449219 246.257812 310.757812 L 245.226562 310.914062 L 246.261719 311.054688 C 248.289062 311.328125 249.898438 312.90625 250.207031 314.929688 " fill-opacity="1" fill-rule="nonzero"/></g><path fill="#0f0f0f" d="M 258.722656 320.132812 L 258.796875 320.632812 L 258.867188 320.128906 C 259 319.144531 259.765625 318.367188 260.746094 318.21875 L 261.246094 318.140625 L 260.746094 318.074219 C 259.761719 317.941406 258.980469 317.175781 258.832031 316.191406 L 258.753906 315.691406 L 258.6875 316.195312 C 258.554688 317.179688 257.789062 317.957031 256.808594 318.105469 L 256.304688 318.183594 L 256.808594 318.25 C 257.792969 318.382812 258.570312 319.148438 258.722656 320.132812 " fill-opacity="1" fill-rule="nonzero"/><path fill="#0f0f0f" d="M 242.699219 320.132812 L 242.777344 320.632812 L 242.84375 320.128906 C 242.976562 319.144531 243.742188 318.367188 244.726562 318.21875 L 245.226562 318.140625 L 244.722656 318.074219 C 243.738281 317.941406 242.960938 317.175781 242.8125 316.191406 L 242.734375 315.691406 L 242.667969 316.195312 C 242.535156 317.179688 241.769531 317.957031 240.785156 318.105469 L 240.285156 318.183594 L 240.789062 318.25 C 241.773438 318.382812 242.550781 319.148438 242.699219 320.132812 " fill-opacity="1" fill-rule="nonzero"/><g transform="matrix(1, 0, 0, 1, 318, 355)"><g clip-path="url(#cbc1a5f365)"><g fill="#0f0f0f" fill-opacity="1"><g transform="translate(0.964089, 82.452611)"><g><path d="M 17.015625 0 L 5.453125 0 L 5.453125 -61.25 L 17.015625 -61.25 L 17.015625 -34.03125 L 38.609375 -61.25 L 52.734375 -61.25 L 28.328125 -31.703125 L 53.53125 0 L 39.171875 0 L 17.015625 -28.40625 Z M 17.015625 0 "/></g></g></g><g fill="#0f0f0f" fill-opacity="1"><g transform="translate(52.655907, 82.452611)"><g><path d="M 32.828125 1.125 C 27.796875 1.125 23.40625 0.269531 19.65625 -1.4375 C 15.914062 -3.15625 12.828125 -5.484375 10.390625 -8.421875 C 7.960938 -11.367188 6.144531 -14.753906 4.9375 -18.578125 C 3.726562 -22.410156 3.125 -26.4375 3.125 -30.65625 C 3.125 -34.882812 3.726562 -38.910156 4.9375 -42.734375 C 6.144531 -46.566406 7.960938 -49.953125 10.390625 -52.890625 C 12.828125 -55.835938 15.914062 -58.148438 19.65625 -59.828125 C 23.40625 -61.515625 27.796875 -62.359375 32.828125 -62.359375 C 37.910156 -62.359375 42.320312 -61.515625 46.0625 -59.828125 C 49.8125 -58.148438 52.90625 -55.835938 55.34375 -52.890625 C 57.78125 -49.953125 59.597656 -46.566406 60.796875 -42.734375 C 62.003906 -38.910156 62.609375 -34.882812 62.609375 -30.65625 C 62.609375 -26.4375 62.003906 -22.410156 60.796875 -18.578125 C 59.597656 -14.753906 57.78125 -11.367188 55.34375 -8.421875 C 52.90625 -5.484375 49.8125 -3.15625 46.0625 -1.4375 C 42.320312 0.269531 37.910156 1.125 32.828125 1.125 Z M 32.828125 -9.234375 C 36.628906 -9.234375 39.835938 -10.128906 42.453125 -11.921875 C 45.078125 -13.710938 47.082031 -16.226562 48.46875 -19.46875 C 49.863281 -22.707031 50.5625 -26.4375 50.5625 -30.65625 C 50.5625 -34.882812 49.863281 -38.585938 48.46875 -41.765625 C 47.082031 -44.953125 45.078125 -47.441406 42.453125 -49.234375 C 39.835938 -51.035156 36.628906 -51.9375 32.828125 -51.9375 C 29.140625 -51.9375 25.96875 -51.035156 23.3125 -49.234375 C 20.664062 -47.441406 18.644531 -44.953125 17.25 -41.765625 C 15.863281 -38.585938 15.171875 -34.882812 15.171875 -30.65625 C 15.171875 -26.4375 15.863281 -22.707031 17.25 -19.46875 C 18.644531 -16.226562 20.664062 -13.710938 23.3125 -11.921875 C 25.96875 -10.128906 29.140625 -9.234375 32.828125 -9.234375 Z M 32.828125 -9.234375 "/></g></g></g><g fill="#0f0f0f" fill-opacity="1"><g transform="translate(116.387938, 82.452611)"><g><path d="M 21.03125 -64.6875 C 19.257812 -64.6875 17.734375 -65.222656 16.453125 -66.296875 C 15.171875 -67.367188 14.53125 -68.816406 14.53125 -70.640625 C 14.53125 -72.453125 15.171875 -73.90625 16.453125 -75 C 17.734375 -76.101562 19.257812 -76.65625 21.03125 -76.65625 C 22.789062 -76.65625 24.300781 -76.101562 25.5625 -75 C 26.820312 -73.90625 27.453125 -72.453125 27.453125 -70.640625 C 27.453125 -68.816406 26.820312 -67.367188 25.5625 -66.296875 C 24.300781 -65.222656 22.789062 -64.6875 21.03125 -64.6875 Z M 37.96875 -64.6875 C 36.195312 -64.6875 34.679688 -65.222656 33.421875 -66.296875 C 32.171875 -67.367188 31.546875 -68.816406 31.546875 -70.640625 C 31.546875 -72.453125 32.171875 -73.90625 33.421875 -75 C 34.679688 -76.101562 36.195312 -76.65625 37.96875 -76.65625 C 39.726562 -76.65625 41.25 -76.101562 42.53125 -75 C 43.820312 -73.90625 44.46875 -72.453125 44.46875 -70.640625 C 44.46875 -68.816406 43.820312 -67.367188 42.53125 -66.296875 C 41.25 -65.222656 39.726562 -64.6875 37.96875 -64.6875 Z M 29.53125 1.125 C 23.695312 1.125 18.960938 0.148438 15.328125 -1.796875 C 11.691406 -3.753906 9.03125 -6.5 7.34375 -10.03125 C 5.65625 -13.5625 4.8125 -17.628906 4.8125 -22.234375 L 4.8125 -61.25 L 16.453125 -61.25 L 16.453125 -22.234375 C 16.453125 -19.722656 16.851562 -17.472656 17.65625 -15.484375 C 18.457031 -13.503906 19.820312 -11.96875 21.75 -10.875 C 23.675781 -9.78125 26.269531 -9.234375 29.53125 -9.234375 C 32.851562 -9.234375 35.460938 -9.78125 37.359375 -10.875 C 39.265625 -11.96875 40.617188 -13.503906 41.421875 -15.484375 C 42.222656 -17.472656 42.625 -19.722656 42.625 -22.234375 L 42.625 -61.25 L 54.265625 -61.25 L 54.265625 -22.234375 C 54.265625 -17.628906 53.421875 -13.5625 51.734375 -10.03125 C 50.046875 -6.5 47.378906 -3.753906 43.734375 -1.796875 C 40.097656 0.148438 35.363281 1.125 29.53125 1.125 Z M 29.53125 1.125 "/></g></g></g><g fill="#0f0f0f" fill-opacity="1"><g transform="translate(173.457718, 82.452611)"><g/></g></g><g fill="#0f0f0f" fill-opacity="1"><g transform="translate(192.881804, 82.452611)"><g><path d="M 46.3125 0 L 5.453125 0 L 5.453125 -61.25 L 46.3125 -61.25 L 46.3125 -50.890625 L 17.015625 -50.890625 L 17.015625 -35.796875 L 43.265625 -35.796875 L 43.265625 -25.53125 L 17.015625 -25.53125 L 17.015625 -10.359375 L 46.3125 -10.359375 Z M 46.3125 0 "/></g></g></g><g fill="#0f0f0f" fill-opacity="1"><g transform="translate(240.640487, 82.452611)"><g><path d="M 32.828125 1.125 C 27.742188 1.125 23.34375 0.269531 19.625 -1.4375 C 15.90625 -3.15625 12.828125 -5.484375 10.390625 -8.421875 C 7.960938 -11.367188 6.144531 -14.753906 4.9375 -18.578125 C 3.726562 -22.410156 3.125 -26.4375 3.125 -30.65625 C 3.125 -34.882812 3.726562 -38.910156 4.9375 -42.734375 C 6.144531 -46.566406 7.960938 -49.953125 10.390625 -52.890625 C 12.828125 -55.835938 15.90625 -58.148438 19.625 -59.828125 C 23.34375 -61.515625 27.742188 -62.359375 32.828125 -62.359375 C 37.859375 -62.359375 42.21875 -61.503906 45.90625 -59.796875 C 49.601562 -58.085938 52.546875 -55.707031 54.734375 -52.65625 C 56.929688 -49.601562 58.296875 -46.070312 58.828125 -42.0625 L 46.234375 -42.0625 C 45.703125 -45.320312 44.191406 -47.796875 41.703125 -49.484375 C 39.210938 -51.171875 36.144531 -52.015625 32.5 -52.015625 C 28.757812 -52.015625 25.601562 -51.117188 23.03125 -49.328125 C 20.46875 -47.535156 18.515625 -45.03125 17.171875 -41.8125 C 15.835938 -38.601562 15.171875 -34.882812 15.171875 -30.65625 C 15.171875 -26.4375 15.835938 -22.707031 17.171875 -19.46875 C 18.515625 -16.226562 20.46875 -13.710938 23.03125 -11.921875 C 25.601562 -10.128906 28.757812 -9.234375 32.5 -9.234375 C 36.144531 -9.234375 39.195312 -10.113281 41.65625 -11.875 C 44.113281 -13.644531 45.640625 -16.320312 46.234375 -19.90625 L 58.828125 -19.90625 C 58.296875 -15.675781 56.929688 -11.984375 54.734375 -8.828125 C 52.546875 -5.671875 49.601562 -3.222656 45.90625 -1.484375 C 42.21875 0.253906 37.859375 1.125 32.828125 1.125 Z M 32.828125 1.125 "/></g></g></g><g fill="#0f0f0f" fill-opacity="1"><g transform="translate(300.1183, 82.452611)"><g><path d="M 32.828125 1.125 C 27.796875 1.125 23.40625 0.269531 19.65625 -1.4375 C 15.914062 -3.15625 12.828125 -5.484375 10.390625 -8.421875 C 7.960938 -11.367188 6.144531 -14.753906 4.9375 -18.578125 C 3.726562 -22.410156 3.125 -26.4375 3.125 -30.65625 C 3.125 -34.882812 3.726562 -38.910156 4.9375 -42.734375 C 6.144531 -46.566406 7.960938 -49.953125 10.390625 -52.890625 C 12.828125 -55.835938 15.914062 -58.148438 19.65625 -59.828125 C 23.40625 -61.515625 27.796875 -62.359375 32.828125 -62.359375 C 37.910156 -62.359375 42.320312 -61.515625 46.0625 -59.828125 C 49.8125 -58.148438 52.90625 -55.835938 55.34375 -52.890625 C 57.78125 -49.953125 59.597656 -46.566406 60.796875 -42.734375 C 62.003906 -38.910156 62.609375 -34.882812 62.609375 -30.65625 C 62.609375 -26.4375 62.003906 -22.410156 60.796875 -18.578125 C 59.597656 -14.753906 57.78125 -11.367188 55.34375 -8.421875 C 52.90625 -5.484375 49.8125 -3.15625 46.0625 -1.4375 C 42.320312 0.269531 37.910156 1.125 32.828125 1.125 Z M 32.828125 -9.234375 C 36.628906 -9.234375 39.835938 -10.128906 42.453125 -11.921875 C 45.078125 -13.710938 47.082031 -16.226562 48.46875 -19.46875 C 49.863281 -22.707031 50.5625 -26.4375 50.5625 -30.65625 C 50.5625 -34.882812 49.863281 -38.585938 48.46875 -41.765625 C 47.082031 -44.953125 45.078125 -47.441406 42.453125 -49.234375 C 39.835938 -51.035156 36.628906 -51.9375 32.828125 -51.9375 C 29.140625 -51.9375 25.96875 -51.035156 23.3125 -49.234375 C 20.664062 -47.441406 18.644531 -44.953125 17.25 -41.765625 C 15.863281 -38.585938 15.171875 -34.882812 15.171875 -30.65625 C 15.171875 -26.4375 15.863281 -22.707031 17.25 -19.46875 C 18.644531 -16.226562 20.664062 -13.710938 23.3125 -11.921875 C 25.96875 -10.128906 29.140625 -9.234375 32.828125 -9.234375 Z M 32.828125 -9.234375 "/></g></g></g><g fill="#0f0f0f" fill-opacity="1"><g transform="translate(363.850331, 82.452611)"><g><path d="M 17.015625 0 L 5.453125 0 L 5.453125 -61.25 L 18.46875 -61.25 L 43.578125 -17.421875 L 43.578125 -61.25 L 55.140625 -61.25 L 55.140625 0 L 42.0625 0 L 17.015625 -43.90625 Z M 17.015625 0 "/></g></g></g></g></g><g transform="matrix(1, 0, 0, 1, 318, 442)"><g clip-path="url(#689b441194)"><g fill="#0f0f0f" fill-opacity="1"><g transform="translate(0.964089, 42.114422)"><g><path d="M 14.703125 0.421875 C 12.628906 0.421875 10.664062 0.0820312 8.8125 -0.59375 C 6.96875 -1.269531 5.414062 -2.347656 4.15625 -3.828125 C 2.90625 -5.304688 2.097656 -7.21875 1.734375 -9.5625 L 5.59375 -9.5625 C 5.925781 -7.882812 6.570312 -6.566406 7.53125 -5.609375 C 8.5 -4.660156 9.640625 -3.984375 10.953125 -3.578125 C 12.265625 -3.179688 13.570312 -2.984375 14.875 -2.984375 C 17.082031 -2.984375 18.8125 -3.441406 20.0625 -4.359375 C 21.320312 -5.285156 21.953125 -6.691406 21.953125 -8.578125 C 21.953125 -9.703125 21.707031 -10.625 21.21875 -11.34375 C 20.738281 -12.0625 20.082031 -12.640625 19.25 -13.078125 C 18.425781 -13.523438 17.492188 -13.882812 16.453125 -14.15625 C 15.421875 -14.4375 14.34375 -14.703125 13.21875 -14.953125 C 11.96875 -15.203125 10.742188 -15.488281 9.546875 -15.8125 C 8.347656 -16.144531 7.257812 -16.601562 6.28125 -17.1875 C 5.300781 -17.769531 4.515625 -18.550781 3.921875 -19.53125 C 3.328125 -20.507812 3.03125 -21.773438 3.03125 -23.328125 C 3.03125 -25.117188 3.460938 -26.660156 4.328125 -27.953125 C 5.203125 -29.253906 6.410156 -30.253906 7.953125 -30.953125 C 9.492188 -31.660156 11.300781 -32.015625 13.375 -32.015625 C 15.175781 -32.015625 16.882812 -31.703125 18.5 -31.078125 C 20.113281 -30.460938 21.492188 -29.488281 22.640625 -28.15625 C 23.785156 -26.832031 24.523438 -25.082031 24.859375 -22.90625 L 21.171875 -22.90625 C 20.867188 -24.34375 20.316406 -25.472656 19.515625 -26.296875 C 18.710938 -27.128906 17.769531 -27.722656 16.6875 -28.078125 C 15.613281 -28.441406 14.5 -28.625 13.34375 -28.625 C 11.207031 -28.625 9.585938 -28.175781 8.484375 -27.28125 C 7.378906 -26.382812 6.828125 -25.175781 6.828125 -23.65625 C 6.828125 -22.382812 7.207031 -21.394531 7.96875 -20.6875 C 8.726562 -19.988281 9.722656 -19.453125 10.953125 -19.078125 C 12.179688 -18.703125 13.5 -18.363281 14.90625 -18.0625 C 16.207031 -17.78125 17.5 -17.457031 18.78125 -17.09375 C 20.070312 -16.738281 21.238281 -16.242188 22.28125 -15.609375 C 23.332031 -14.972656 24.175781 -14.117188 24.8125 -13.046875 C 25.445312 -11.972656 25.765625 -10.566406 25.765625 -8.828125 C 25.765625 -6.035156 24.820312 -3.796875 22.9375 -2.109375 C 21.0625 -0.421875 18.316406 0.421875 14.703125 0.421875 Z M 14.703125 0.421875 "/></g></g></g><g fill="#0f0f0f" fill-opacity="1"><g transform="translate(27.751002, 42.114422)"><g><path d="M 13.171875 0.421875 C 10.992188 0.421875 9.0625 -0.0859375 7.375 -1.109375 C 5.6875 -2.140625 4.363281 -3.554688 3.40625 -5.359375 C 2.457031 -7.171875 1.984375 -9.238281 1.984375 -11.5625 C 1.984375 -13.820312 2.457031 -15.832031 3.40625 -17.59375 C 4.363281 -19.363281 5.6875 -20.757812 7.375 -21.78125 C 9.0625 -22.8125 10.992188 -23.328125 13.171875 -23.328125 C 15.347656 -23.328125 17.285156 -22.8125 18.984375 -21.78125 C 20.691406 -20.757812 22.023438 -19.363281 22.984375 -17.59375 C 23.953125 -15.832031 24.4375 -13.820312 24.4375 -11.5625 C 24.4375 -9.269531 23.957031 -7.21875 23 -5.40625 C 22.050781 -3.59375 20.726562 -2.164062 19.03125 -1.125 C 17.332031 -0.09375 15.378906 0.421875 13.171875 0.421875 Z M 13.171875 -2.6875 C 14.640625 -2.6875 15.953125 -3.070312 17.109375 -3.84375 C 18.265625 -4.625 19.179688 -5.679688 19.859375 -7.015625 C 20.535156 -8.359375 20.875 -9.875 20.875 -11.5625 C 20.875 -13.1875 20.539062 -14.65625 19.875 -15.96875 C 19.21875 -17.28125 18.304688 -18.316406 17.140625 -19.078125 C 15.984375 -19.835938 14.660156 -20.21875 13.171875 -20.21875 C 11.710938 -20.21875 10.398438 -19.84375 9.234375 -19.09375 C 8.078125 -18.351562 7.164062 -17.328125 6.5 -16.015625 C 5.84375 -14.703125 5.515625 -13.21875 5.515625 -11.5625 C 5.515625 -9.84375 5.847656 -8.3125 6.515625 -6.96875 C 7.191406 -5.632812 8.109375 -4.585938 9.265625 -3.828125 C 10.429688 -3.066406 11.734375 -2.6875 13.171875 -2.6875 Z M 13.171875 -2.6875 "/></g></g></g><g fill="#0f0f0f" fill-opacity="1"><g transform="translate(53.130225, 42.114422)"><g><path d="M 12.171875 0.421875 C 9.242188 0.421875 6.875 -0.273438 5.0625 -1.671875 C 3.257812 -3.066406 2.164062 -4.96875 1.78125 -7.375 L 5.46875 -7.375 C 5.769531 -5.988281 6.457031 -4.859375 7.53125 -3.984375 C 8.613281 -3.117188 10.175781 -2.6875 12.21875 -2.6875 C 13.769531 -2.6875 15.035156 -2.984375 16.015625 -3.578125 C 16.992188 -4.171875 17.484375 -5.050781 17.484375 -6.21875 C 17.484375 -7.175781 17.175781 -7.914062 16.5625 -8.4375 C 15.957031 -8.96875 15.164062 -9.367188 14.1875 -9.640625 C 13.207031 -9.921875 12.148438 -10.171875 11.015625 -10.390625 C 10.023438 -10.585938 9.039062 -10.8125 8.0625 -11.0625 C 7.082031 -11.3125 6.191406 -11.65625 5.390625 -12.09375 C 4.585938 -12.539062 3.941406 -13.132812 3.453125 -13.875 C 2.972656 -14.625 2.734375 -15.578125 2.734375 -16.734375 C 2.734375 -18.171875 3.097656 -19.378906 3.828125 -20.359375 C 4.554688 -21.335938 5.554688 -22.078125 6.828125 -22.578125 C 8.097656 -23.078125 9.507812 -23.328125 11.0625 -23.328125 C 13.539062 -23.328125 15.609375 -22.679688 17.265625 -21.390625 C 18.929688 -20.109375 19.957031 -18.320312 20.34375 -16.03125 L 17.0625 -16.03125 C 16.707031 -17.488281 16 -18.550781 14.9375 -19.21875 C 13.875 -19.882812 12.582031 -20.21875 11.0625 -20.21875 C 9.539062 -20.21875 8.359375 -19.929688 7.515625 -19.359375 C 6.671875 -18.796875 6.25 -18.019531 6.25 -17.03125 C 6.25 -16.226562 6.53125 -15.597656 7.09375 -15.140625 C 7.664062 -14.679688 8.40625 -14.332031 9.3125 -14.09375 C 10.226562 -13.863281 11.210938 -13.640625 12.265625 -13.421875 C 13.285156 -13.222656 14.3125 -12.992188 15.34375 -12.734375 C 16.382812 -12.472656 17.332031 -12.109375 18.1875 -11.640625 C 19.039062 -11.171875 19.722656 -10.535156 20.234375 -9.734375 C 20.742188 -8.929688 21 -7.882812 21 -6.59375 C 21 -4.488281 20.234375 -2.789062 18.703125 -1.5 C 17.171875 -0.21875 14.992188 0.421875 12.171875 0.421875 Z M 12.171875 0.421875 "/></g></g></g><g fill="#0f0f0f" fill-opacity="1"><g transform="translate(75.114415, 42.114422)"><g><path d="M 6.34375 8.703125 L 2.9375 8.703125 L 2.9375 5.46875 L 5.09375 5.46875 C 5.726562 5.46875 6.238281 5.414062 6.625 5.3125 C 7.007812 5.21875 7.335938 5.003906 7.609375 4.671875 C 7.890625 4.347656 8.171875 3.8125 8.453125 3.0625 L 9.6875 -0.328125 L 0.75 -22.90625 L 4.640625 -22.90625 L 11.59375 -5.140625 L 18.0625 -22.90625 L 21.875 -22.90625 L 11.71875 4.59375 C 11.113281 6.28125 10.410156 7.382812 9.609375 7.90625 C 8.804688 8.4375 7.71875 8.703125 6.34375 8.703125 Z M 6.34375 8.703125 "/></g></g></g><g fill="#0f0f0f" fill-opacity="1"><g transform="translate(96.767376, 42.114422)"><g><path d="M 9.4375 0.421875 C 7.144531 0.421875 5.328125 -0.15625 3.984375 -1.3125 C 2.648438 -2.476562 1.984375 -4.070312 1.984375 -6.09375 C 1.984375 -8.082031 2.726562 -9.65625 4.21875 -10.8125 C 5.4375 -11.78125 7.191406 -12.5 9.484375 -12.96875 L 17.640625 -14.546875 C 17.640625 -16.335938 17.171875 -17.703125 16.234375 -18.640625 C 15.179688 -19.691406 13.773438 -20.21875 12.015625 -20.21875 C 10.609375 -20.21875 9.382812 -19.84375 8.34375 -19.09375 C 7.3125 -18.351562 6.65625 -17.332031 6.375 -16.03125 L 2.859375 -16.03125 C 3.128906 -17.632812 3.710938 -18.972656 4.609375 -20.046875 C 5.515625 -21.117188 6.613281 -21.929688 7.90625 -22.484375 C 9.207031 -23.046875 10.585938 -23.328125 12.046875 -23.328125 C 13.378906 -23.328125 14.628906 -23.128906 15.796875 -22.734375 C 16.972656 -22.347656 17.960938 -21.753906 18.765625 -20.953125 C 19.566406 -20.179688 20.128906 -19.3125 20.453125 -18.34375 C 20.785156 -17.382812 20.988281 -16.46875 21.0625 -15.59375 C 21.132812 -14.726562 21.171875 -14.03125 21.171875 -13.5 L 21.171875 0 L 17.640625 0 L 17.640625 -3.609375 C 16.835938 -2.441406 15.914062 -1.539062 14.875 -0.90625 C 14.09375 -0.4375 13.253906 -0.0976562 12.359375 0.109375 C 11.460938 0.316406 10.488281 0.421875 9.4375 0.421875 Z M 9.859375 -2.6875 C 11.265625 -2.6875 12.476562 -2.953125 13.5 -3.484375 C 15.132812 -4.335938 16.238281 -5.441406 16.8125 -6.796875 C 17.394531 -8.148438 17.6875 -9.78125 17.6875 -11.6875 L 10.234375 -10.1875 C 8.515625 -9.851562 7.257812 -9.316406 6.46875 -8.578125 C 5.832031 -7.941406 5.515625 -7.140625 5.515625 -6.171875 C 5.515625 -5.117188 5.90625 -4.273438 6.6875 -3.640625 C 7.476562 -3.003906 8.535156 -2.6875 9.859375 -2.6875 Z M 9.859375 -2.6875 "/></g></g></g><g fill="#0f0f0f" fill-opacity="1"><g transform="translate(119.538218, 42.114422)"><g><path d="M 10.234375 0 L 8.28125 0 C 7.15625 0 6.179688 -0.15625 5.359375 -0.46875 C 4.546875 -0.789062 3.925781 -1.375 3.5 -2.21875 C 3.070312 -3.0625 2.859375 -4.238281 2.859375 -5.75 L 2.859375 -31.609375 L 6.375 -31.609375 L 6.375 -6.296875 C 6.375 -5.609375 6.421875 -5.03125 6.515625 -4.5625 C 6.617188 -4.09375 6.863281 -3.734375 7.25 -3.484375 C 7.632812 -3.234375 8.253906 -3.109375 9.109375 -3.109375 L 10.234375 -3.109375 Z M 10.234375 0 "/></g></g></g><g fill="#0f0f0f" fill-opacity="1"><g transform="translate(129.929602, 42.114422)"><g/></g></g><g fill="#0f0f0f" fill-opacity="1"><g transform="translate(140.445196, 42.114422)"><g><path d="M 7.078125 0 L 3.265625 0 L 3.265625 -31.609375 L 10.109375 -31.609375 L 18.59375 -4.71875 L 27.09375 -31.609375 L 33.96875 -31.609375 L 33.96875 0 L 30.15625 0 L 30.15625 -29.328125 L 20.5 0 L 16.734375 0 L 7.078125 -29.125 Z M 7.078125 0 "/></g></g></g><g fill="#0f0f0f" fill-opacity="1"><g transform="translate(176.589171, 42.114422)"><g><path d="M 13.125 0.421875 C 10.945312 0.421875 9.015625 -0.09375 7.328125 -1.125 C 5.648438 -2.164062 4.335938 -3.578125 3.390625 -5.359375 C 2.453125 -7.140625 1.984375 -9.148438 1.984375 -11.390625 C 1.984375 -13.460938 2.410156 -15.410156 3.265625 -17.234375 C 4.128906 -19.054688 5.390625 -20.523438 7.046875 -21.640625 C 8.703125 -22.765625 10.703125 -23.328125 13.046875 -23.328125 C 14.984375 -23.328125 16.785156 -22.894531 18.453125 -22.03125 C 20.117188 -21.175781 21.476562 -19.90625 22.53125 -18.21875 C 23.582031 -16.539062 24.109375 -14.472656 24.109375 -12.015625 L 24.109375 -10.765625 L 5.46875 -10.765625 C 5.519531 -9.960938 5.671875 -9.203125 5.921875 -8.484375 C 6.503906 -6.722656 7.429688 -5.316406 8.703125 -4.265625 C 9.972656 -3.210938 11.4375 -2.6875 13.09375 -2.6875 C 14.832031 -2.6875 16.28125 -3.148438 17.4375 -4.078125 C 18.59375 -5.003906 19.421875 -6.101562 19.921875 -7.375 L 23.6875 -7.375 C 23.21875 -5.9375 22.515625 -4.628906 21.578125 -3.453125 C 20.640625 -2.285156 19.472656 -1.347656 18.078125 -0.640625 C 16.679688 0.0664062 15.03125 0.421875 13.125 0.421875 Z M 5.796875 -13.875 L 20.34375 -13.875 C 20.3125 -14.257812 20.253906 -14.644531 20.171875 -15.03125 C 20.085938 -15.414062 19.976562 -15.773438 19.84375 -16.109375 C 19.238281 -17.429688 18.332031 -18.445312 17.125 -19.15625 C 15.925781 -19.863281 14.59375 -20.21875 13.125 -20.21875 C 11.613281 -20.21875 10.285156 -19.859375 9.140625 -19.140625 C 7.992188 -18.421875 7.101562 -17.410156 6.46875 -16.109375 C 6.300781 -15.753906 6.160156 -15.382812 6.046875 -15 C 5.929688 -14.613281 5.847656 -14.238281 5.796875 -13.875 Z M 5.796875 -13.875 "/></g></g></g><g fill="#0f0f0f" fill-opacity="1"><g transform="translate(201.554376, 42.114422)"><g><path d="M 12.265625 0.421875 C 10.222656 0.421875 8.429688 -0.0820312 6.890625 -1.09375 C 5.359375 -2.101562 4.171875 -3.5 3.328125 -5.28125 C 2.492188 -7.0625 2.078125 -9.113281 2.078125 -11.4375 C 2.078125 -13.78125 2.492188 -15.84375 3.328125 -17.625 C 4.171875 -19.40625 5.359375 -20.800781 6.890625 -21.8125 C 8.429688 -22.820312 10.222656 -23.328125 12.265625 -23.328125 C 13.804688 -23.328125 15.144531 -23.046875 16.28125 -22.484375 C 17.414062 -21.929688 18.578125 -20.882812 19.765625 -19.34375 L 19.765625 -31.609375 L 23.28125 -31.609375 L 23.28125 0 L 19.765625 0 L 19.765625 -3.5625 C 18.597656 -2.070312 17.445312 -1.035156 16.3125 -0.453125 C 15.1875 0.128906 13.835938 0.421875 12.265625 0.421875 Z M 12.59375 -2.6875 C 14.03125 -2.6875 15.289062 -3.066406 16.375 -3.828125 C 17.46875 -4.585938 18.320312 -5.625 18.9375 -6.9375 C 19.5625 -8.25 19.875 -9.75 19.875 -11.4375 C 19.875 -13.144531 19.5625 -14.65625 18.9375 -15.96875 C 18.320312 -17.28125 17.46875 -18.316406 16.375 -19.078125 C 15.289062 -19.835938 14.03125 -20.21875 12.59375 -20.21875 C 11.15625 -20.21875 9.910156 -19.828125 8.859375 -19.046875 C 7.816406 -18.273438 7.007812 -17.234375 6.4375 -15.921875 C 5.875 -14.609375 5.59375 -13.113281 5.59375 -11.4375 C 5.59375 -9.78125 5.875 -8.296875 6.4375 -6.984375 C 7.007812 -5.671875 7.816406 -4.625 8.859375 -3.84375 C 9.910156 -3.070312 11.15625 -2.6875 12.59375 -2.6875 Z M 12.59375 -2.6875 "/></g></g></g><g fill="#0f0f0f" fill-opacity="1"><g transform="translate(226.72658, 42.114422)"><g><path d="M 6.34375 8.703125 L 2.9375 8.703125 L 2.9375 5.46875 L 5.09375 5.46875 C 5.726562 5.46875 6.238281 5.414062 6.625 5.3125 C 7.007812 5.21875 7.335938 5.003906 7.609375 4.671875 C 7.890625 4.347656 8.171875 3.8125 8.453125 3.0625 L 9.6875 -0.328125 L 0.75 -22.90625 L 4.640625 -22.90625 L 11.59375 -5.140625 L 18.0625 -22.90625 L 21.875 -22.90625 L 11.71875 4.59375 C 11.113281 6.28125 10.410156 7.382812 9.609375 7.90625 C 8.804688 8.4375 7.71875 8.703125 6.34375 8.703125 Z M 6.34375 8.703125 "/></g></g></g><g fill="#0f0f0f" fill-opacity="1"><g transform="translate(248.379541, 42.114422)"><g><path d="M 9.4375 0.421875 C 7.144531 0.421875 5.328125 -0.15625 3.984375 -1.3125 C 2.648438 -2.476562 1.984375 -4.070312 1.984375 -6.09375 C 1.984375 -8.082031 2.726562 -9.65625 4.21875 -10.8125 C 5.4375 -11.78125 7.191406 -12.5 9.484375 -12.96875 L 17.640625 -14.546875 C 17.640625 -16.335938 17.171875 -17.703125 16.234375 -18.640625 C 15.179688 -19.691406 13.773438 -20.21875 12.015625 -20.21875 C 10.609375 -20.21875 9.382812 -19.84375 8.34375 -19.09375 C 7.3125 -18.351562 6.65625 -17.332031 6.375 -16.03125 L 2.859375 -16.03125 C 3.128906 -17.632812 3.710938 -18.972656 4.609375 -20.046875 C 5.515625 -21.117188 6.613281 -21.929688 7.90625 -22.484375 C 9.207031 -23.046875 10.585938 -23.328125 12.046875 -23.328125 C 13.378906 -23.328125 14.628906 -23.128906 15.796875 -22.734375 C 16.972656 -22.347656 17.960938 -21.753906 18.765625 -20.953125 C 19.566406 -20.179688 20.128906 -19.3125 20.453125 -18.34375 C 20.785156 -17.382812 20.988281 -16.46875 21.0625 -15.59375 C 21.132812 -14.726562 21.171875 -14.03125 21.171875 -13.5 L 21.171875 0 L 17.640625 0 L 17.640625 -3.609375 C 16.835938 -2.441406 15.914062 -1.539062 14.875 -0.90625 C 14.09375 -0.4375 13.253906 -0.0976562 12.359375 0.109375 C 11.460938 0.316406 10.488281 0.421875 9.4375 0.421875 Z M 9.859375 -2.6875 C 11.265625 -2.6875 12.476562 -2.953125 13.5 -3.484375 C 15.132812 -4.335938 16.238281 -5.441406 16.8125 -6.796875 C 17.394531 -8.148438 17.6875 -9.78125 17.6875 -11.6875 L 10.234375 -10.1875 C 8.515625 -9.851562 7.257812 -9.316406 6.46875 -8.578125 C 5.832031 -7.941406 5.515625 -7.140625 5.515625 -6.171875 C 5.515625 -5.117188 5.90625 -4.273438 6.6875 -3.640625 C 7.476562 -3.003906 8.535156 -2.6875 9.859375 -2.6875 Z M 9.859375 -2.6875 "/></g></g></g><g fill="#0f0f0f" fill-opacity="1"><g transform="translate(271.150383, 42.114422)"><g/></g></g><g fill="#0f0f0f" fill-opacity="1"><g transform="translate(281.665978, 42.114422)"><g><path d="M 7.078125 0 L 3.265625 0 L 3.265625 -31.609375 L 15.03125 -31.609375 C 18.070312 -31.609375 20.503906 -30.859375 22.328125 -29.359375 C 24.148438 -27.867188 25.0625 -25.609375 25.0625 -22.578125 C 25.0625 -19.671875 24.148438 -17.40625 22.328125 -15.78125 C 20.503906 -14.15625 18.070312 -13.34375 15.03125 -13.34375 L 7.078125 -13.34375 Z M 7.078125 -28.171875 L 7.078125 -16.734375 L 14.546875 -16.734375 C 16.722656 -16.734375 18.390625 -17.222656 19.546875 -18.203125 C 20.710938 -19.179688 21.296875 -20.597656 21.296875 -22.453125 C 21.296875 -24.273438 20.703125 -25.679688 19.515625 -26.671875 C 18.328125 -27.671875 16.671875 -28.171875 14.546875 -28.171875 Z M 7.078125 -28.171875 "/></g></g></g><g fill="#0f0f0f" fill-opacity="1"><g transform="translate(307.086605, 42.114422)"><g><path d="M 10.234375 0 L 8.28125 0 C 7.15625 0 6.179688 -0.15625 5.359375 -0.46875 C 4.546875 -0.789062 3.925781 -1.375 3.5 -2.21875 C 3.070312 -3.0625 2.859375 -4.238281 2.859375 -5.75 L 2.859375 -31.609375 L 6.375 -31.609375 L 6.375 -6.296875 C 6.375 -5.609375 6.421875 -5.03125 6.515625 -4.5625 C 6.617188 -4.09375 6.863281 -3.734375 7.25 -3.484375 C 7.632812 -3.234375 8.253906 -3.109375 9.109375 -3.109375 L 10.234375 -3.109375 Z M 10.234375 0 "/></g></g></g><g fill="#0f0f0f" fill-opacity="1"><g transform="translate(317.477989, 42.114422)"><g><path d="M 9.4375 0.421875 C 7.144531 0.421875 5.328125 -0.15625 3.984375 -1.3125 C 2.648438 -2.476562 1.984375 -4.070312 1.984375 -6.09375 C 1.984375 -8.082031 2.726562 -9.65625 4.21875 -10.8125 C 5.4375 -11.78125 7.191406 -12.5 9.484375 -12.96875 L 17.640625 -14.546875 C 17.640625 -16.335938 17.171875 -17.703125 16.234375 -18.640625 C 15.179688 -19.691406 13.773438 -20.21875 12.015625 -20.21875 C 10.609375 -20.21875 9.382812 -19.84375 8.34375 -19.09375 C 7.3125 -18.351562 6.65625 -17.332031 6.375 -16.03125 L 2.859375 -16.03125 C 3.128906 -17.632812 3.710938 -18.972656 4.609375 -20.046875 C 5.515625 -21.117188 6.613281 -21.929688 7.90625 -22.484375 C 9.207031 -23.046875 10.585938 -23.328125 12.046875 -23.328125 C 13.378906 -23.328125 14.628906 -23.128906 15.796875 -22.734375 C 16.972656 -22.347656 17.960938 -21.753906 18.765625 -20.953125 C 19.566406 -20.179688 20.128906 -19.3125 20.453125 -18.34375 C 20.785156 -17.382812 20.988281 -16.46875 21.0625 -15.59375 C 21.132812 -14.726562 21.171875 -14.03125 21.171875 -13.5 L 21.171875 0 L 17.640625 0 L 17.640625 -3.609375 C 16.835938 -2.441406 15.914062 -1.539062 14.875 -0.90625 C 14.09375 -0.4375 13.253906 -0.0976562 12.359375 0.109375 C 11.460938 0.316406 10.488281 0.421875 9.4375 0.421875 Z M 9.859375 -2.6875 C 11.265625 -2.6875 12.476562 -2.953125 13.5 -3.484375 C 15.132812 -4.335938 16.238281 -5.441406 16.8125 -6.796875 C 17.394531 -8.148438 17.6875 -9.78125 17.6875 -11.6875 L 10.234375 -10.1875 C 8.515625 -9.851562 7.257812 -9.316406 6.46875 -8.578125 C 5.832031 -7.941406 5.515625 -7.140625 5.515625 -6.171875 C 5.515625 -5.117188 5.90625 -4.273438 6.6875 -3.640625 C 7.476562 -3.003906 8.535156 -2.6875 9.859375 -2.6875 Z M 9.859375 -2.6875 "/></g></g></g><g fill="#0f0f0f" fill-opacity="1"><g transform="translate(340.248852, 42.114422)"><g><path d="M 13.421875 0 L 10.234375 0 C 9.097656 0 8.125 -0.15625 7.3125 -0.46875 C 6.5 -0.789062 5.878906 -1.375 5.453125 -2.21875 C 5.023438 -3.0625 4.8125 -4.238281 4.8125 -5.75 L 4.8125 -19.796875 L 1.125 -19.796875 L 1.125 -22.90625 L 4.8125 -22.90625 L 4.8125 -31.609375 L 8.328125 -31.609375 L 8.328125 -22.90625 L 13.46875 -22.90625 L 13.46875 -19.796875 L 8.328125 -19.796875 L 8.328125 -6.46875 C 8.328125 -5.800781 8.375 -5.210938 8.46875 -4.703125 C 8.5625 -4.191406 8.800781 -3.796875 9.1875 -3.515625 C 9.582031 -3.242188 10.207031 -3.109375 11.0625 -3.109375 L 13.421875 -3.109375 Z M 13.421875 0 "/></g></g></g><g fill="#0f0f0f" fill-opacity="1"><g transform="translate(354.118036, 42.114422)"><g><path d="M 8.40625 0 L 4.890625 0 L 4.890625 -19.796875 L 1.078125 -19.796875 L 1.078125 -22.90625 L 4.890625 -22.90625 L 4.890625 -25.390625 C 4.890625 -29.535156 6.863281 -31.609375 10.8125 -31.609375 L 13.75 -31.609375 L 13.75 -28.5 L 11.59375 -28.5 C 9.46875 -28.5 8.40625 -27.3125 8.40625 -24.9375 L 8.40625 -22.90625 L 13.75 -22.90625 L 13.75 -19.796875 L 8.40625 -19.796875 Z M 8.40625 0 "/></g></g></g><g fill="#0f0f0f" fill-opacity="1"><g transform="translate(367.656069, 42.114422)"><g><path d="M 13.171875 0.421875 C 10.992188 0.421875 9.0625 -0.0859375 7.375 -1.109375 C 5.6875 -2.140625 4.363281 -3.554688 3.40625 -5.359375 C 2.457031 -7.171875 1.984375 -9.238281 1.984375 -11.5625 C 1.984375 -13.820312 2.457031 -15.832031 3.40625 -17.59375 C 4.363281 -19.363281 5.6875 -20.757812 7.375 -21.78125 C 9.0625 -22.8125 10.992188 -23.328125 13.171875 -23.328125 C 15.347656 -23.328125 17.285156 -22.8125 18.984375 -21.78125 C 20.691406 -20.757812 22.023438 -19.363281 22.984375 -17.59375 C 23.953125 -15.832031 24.4375 -13.820312 24.4375 -11.5625 C 24.4375 -9.269531 23.957031 -7.21875 23 -5.40625 C 22.050781 -3.59375 20.726562 -2.164062 19.03125 -1.125 C 17.332031 -0.09375 15.378906 0.421875 13.171875 0.421875 Z M 13.171875 -2.6875 C 14.640625 -2.6875 15.953125 -3.070312 17.109375 -3.84375 C 18.265625 -4.625 19.179688 -5.679688 19.859375 -7.015625 C 20.535156 -8.359375 20.875 -9.875 20.875 -11.5625 C 20.875 -13.1875 20.539062 -14.65625 19.875 -15.96875 C 19.21875 -17.28125 18.304688 -18.316406 17.140625 -19.078125 C 15.984375 -19.835938 14.660156 -20.21875 13.171875 -20.21875 C 11.710938 -20.21875 10.398438 -19.84375 9.234375 -19.09375 C 8.078125 -18.351562 7.164062 -17.328125 6.5 -16.015625 C 5.84375 -14.703125 5.515625 -13.21875 5.515625 -11.5625 C 5.515625 -9.84375 5.847656 -8.3125 6.515625 -6.96875 C 7.191406 -5.632812 8.109375 -4.585938 9.265625 -3.828125 C 10.429688 -3.066406 11.734375 -2.6875 13.171875 -2.6875 Z M 13.171875 -2.6875 "/></g></g></g><g fill="#0f0f0f" fill-opacity="1"><g transform="translate(393.035273, 42.114422)"><g><path d="M 6.46875 0 L 2.9375 0 L 2.9375 -22.90625 L 6.46875 -22.90625 L 6.46875 -19.765625 C 7.507812 -21.054688 8.628906 -21.972656 9.828125 -22.515625 C 11.035156 -23.054688 12.410156 -23.328125 13.953125 -23.328125 L 14.125 -23.328125 L 14.125 -19.796875 L 12.921875 -19.796875 C 11.066406 -19.796875 9.585938 -19.242188 8.484375 -18.140625 C 7.828125 -17.503906 7.328125 -16.6875 6.984375 -15.6875 C 6.640625 -14.695312 6.46875 -13.484375 6.46875 -12.046875 Z M 6.46875 0 "/></g></g></g><g fill="#0f0f0f" fill-opacity="1"><g transform="translate(406.987304, 42.114422)"><g><path d="M 6.46875 0 L 2.9375 0 L 2.9375 -22.90625 L 6.46875 -22.90625 L 6.46875 -19.34375 C 7.625 -20.832031 8.734375 -21.867188 9.796875 -22.453125 C 10.859375 -23.035156 12.007812 -23.328125 13.25 -23.328125 C 14.71875 -23.328125 16.050781 -22.976562 17.25 -22.28125 C 18.445312 -21.59375 19.226562 -20.53125 19.59375 -19.09375 C 20.445312 -20.75 21.515625 -21.867188 22.796875 -22.453125 C 24.085938 -23.035156 25.4375 -23.328125 26.84375 -23.328125 C 29.4375 -23.328125 31.351562 -22.585938 32.59375 -21.109375 C 33.84375 -19.628906 34.46875 -17.5625 34.46875 -14.90625 L 34.46875 0 L 30.9375 0 L 30.9375 -14.078125 C 30.9375 -16.066406 30.53125 -17.585938 29.71875 -18.640625 C 28.90625 -19.691406 27.765625 -20.21875 26.296875 -20.21875 C 25.472656 -20.21875 24.753906 -20.078125 24.140625 -19.796875 C 23.535156 -19.523438 23.015625 -19.15625 22.578125 -18.6875 C 21.773438 -17.820312 21.222656 -16.707031 20.921875 -15.34375 C 20.617188 -13.976562 20.46875 -12.316406 20.46875 -10.359375 L 20.46875 0 L 16.9375 0 L 16.9375 -14.078125 C 16.9375 -16.046875 16.507812 -17.5625 15.65625 -18.625 C 14.800781 -19.6875 13.671875 -20.21875 12.265625 -20.21875 C 11.484375 -20.21875 10.78125 -20.070312 10.15625 -19.78125 C 9.539062 -19.488281 9 -19.082031 8.53125 -18.5625 C 7.84375 -17.78125 7.328125 -16.757812 6.984375 -15.5 C 6.640625 -14.25 6.46875 -12.535156 6.46875 -10.359375 Z M 6.46875 0 "/></g></g></g><g fill="#0f0f0f" fill-opacity="1"><g transform="translate(443.131258, 42.114422)"><g><path d="M 10.6875 0.421875 C 7.476562 0.421875 5.226562 -0.78125 3.9375 -3.1875 C 3.21875 -4.539062 2.859375 -6.515625 2.859375 -9.109375 L 2.859375 -22.90625 L 6.375 -22.90625 L 6.375 -9.109375 C 6.375 -6.679688 6.816406 -4.96875 7.703125 -3.96875 C 8.472656 -3.113281 9.644531 -2.6875 11.21875 -2.6875 C 12.957031 -2.6875 14.351562 -3.253906 15.40625 -4.390625 C 16.15625 -5.191406 16.6875 -6.257812 17 -7.59375 C 17.320312 -8.9375 17.484375 -10.78125 17.484375 -13.125 L 17.484375 -22.90625 L 21 -22.90625 L 21 0 L 17.484375 0 L 17.484375 -3.5625 C 16.378906 -2.15625 15.296875 -1.140625 14.234375 -0.515625 C 13.171875 0.105469 11.988281 0.421875 10.6875 0.421875 Z M 10.6875 0.421875 "/></g></g></g></g></g></svg>
